<mxfile host="Electron" modified="2023-10-22T22:27:48.269Z" agent="Mozilla/5.0 (Windows NT 10.0; Win64; x64) AppleWebKit/537.36 (KHTML, like Gecko) draw.io/22.0.3 Chrome/114.0.5735.289 Electron/25.8.4 Safari/537.36" etag="B-eLj5TnVWYDNjHMMivy" version="22.0.3" type="device">
  <diagram name="Задача" id="nY6jz-aQDKUJJOgWk3_c">
    <mxGraphModel dx="1098" dy="828" grid="1" gridSize="10" guides="1" tooltips="1" connect="1" arrows="1" fold="1" page="1" pageScale="1" pageWidth="827" pageHeight="1169" math="0" shadow="0">
      <root>
        <mxCell id="0" />
        <mxCell id="1" parent="0" />
        <mxCell id="W-eNpjbr4Y5YhyU_VTu8-1" value="&lt;font style=&quot;&quot;&gt;&lt;font style=&quot;font-size: 18px;&quot;&gt;&lt;font style=&quot;&quot;&gt;&lt;b style=&quot;&quot;&gt;&lt;font style=&quot;&quot; face=&quot;Verdana&quot;&gt;Задача.&lt;br&gt;&lt;/font&gt;&lt;/b&gt;&lt;font style=&quot;&quot; face=&quot;Verdana&quot;&gt;&lt;b style=&quot;&quot;&gt;Написать программу, которая из имеющегося массива строк формирует новый массив из строк, длина которых меньше, либо равна 3 символам. &lt;br&gt;Первоначальный массив можно ввести с клавиатуры, либо задать на старте выполнения алгоритма.&lt;br&gt;При решении не рекомендуется пользоваться коллекциями, лучше обойтись исключительно массивами.&lt;/b&gt;&lt;/font&gt;&lt;/font&gt;&lt;b style=&quot;&quot;&gt;&lt;font style=&quot;&quot; face=&quot;Verdana&quot;&gt;&lt;br&gt;&lt;/font&gt;&lt;/b&gt;&lt;/font&gt;&lt;b style=&quot;font-size: 18px;&quot;&gt;&lt;br&gt;&lt;/b&gt;&lt;/font&gt;" style="text;whiteSpace=wrap;html=1;perimeterSpacing=1;spacingRight=3;spacingLeft=3;spacingBottom=3;spacingTop=0;spacing=3;" parent="1" vertex="1">
          <mxGeometry x="10" y="3" width="810" height="177" as="geometry" />
        </mxCell>
        <mxCell id="IAlepKs2CYF-oDTVzJ_J-8" value="" style="edgeStyle=orthogonalEdgeStyle;rounded=0;orthogonalLoop=1;jettySize=auto;html=1;" edge="1" parent="1" source="OUtE3hi6zpG22OVB9uPO-1" target="vJ9HQT0dvIToX4EGv8ug-2">
          <mxGeometry relative="1" as="geometry" />
        </mxCell>
        <mxCell id="OUtE3hi6zpG22OVB9uPO-1" value="&lt;font style=&quot;font-size: 18px;&quot;&gt;&lt;b&gt;Start&lt;/b&gt;&lt;/font&gt;" style="ellipse;whiteSpace=wrap;html=1;" parent="1" vertex="1">
          <mxGeometry x="220" y="190" width="140" height="50" as="geometry" />
        </mxCell>
        <mxCell id="IAlepKs2CYF-oDTVzJ_J-25" style="edgeStyle=orthogonalEdgeStyle;rounded=0;orthogonalLoop=1;jettySize=auto;html=1;entryX=0;entryY=0.5;entryDx=0;entryDy=0;" edge="1" parent="1" source="OUtE3hi6zpG22OVB9uPO-8" target="IAlepKs2CYF-oDTVzJ_J-1">
          <mxGeometry relative="1" as="geometry">
            <Array as="points">
              <mxPoint x="380" y="1035" />
              <mxPoint x="70" y="1035" />
              <mxPoint x="70" y="601" />
            </Array>
          </mxGeometry>
        </mxCell>
        <mxCell id="OUtE3hi6zpG22OVB9uPO-8" value="&lt;font style=&quot;font-size: 18px;&quot;&gt;index = index + 1&lt;br&gt;&lt;br&gt;&lt;/font&gt;" style="whiteSpace=wrap;html=1;spacingTop=21;spacing=0;" parent="1" vertex="1">
          <mxGeometry x="250" y="940" width="260" height="56" as="geometry" />
        </mxCell>
        <mxCell id="HzvIYmYcQqcCCs3-Qavh-33" value="" style="edgeStyle=orthogonalEdgeStyle;rounded=0;orthogonalLoop=1;jettySize=auto;html=1;" parent="1" source="PCb_0v7427A1OTCI7Cz3-1" target="HzvIYmYcQqcCCs3-Qavh-14" edge="1">
          <mxGeometry relative="1" as="geometry" />
        </mxCell>
        <mxCell id="IAlepKs2CYF-oDTVzJ_J-28" value="" style="edgeStyle=orthogonalEdgeStyle;rounded=0;orthogonalLoop=1;jettySize=auto;html=1;" edge="1" parent="1" source="HzvIYmYcQqcCCs3-Qavh-14" target="HzvIYmYcQqcCCs3-Qavh-26">
          <mxGeometry relative="1" as="geometry" />
        </mxCell>
        <mxCell id="HzvIYmYcQqcCCs3-Qavh-14" value="&lt;font style=&quot;font-size: 18px;&quot;&gt;&lt;b&gt;sizeDC&lt;br&gt;diffCh[]&lt;br&gt;sizeNC&lt;br&gt;new3Ch[]&lt;/b&gt;&lt;br&gt;&lt;/font&gt;" style="shape=document;whiteSpace=wrap;html=1;boundedLbl=1;" parent="1" vertex="1">
          <mxGeometry x="570" y="782.5" width="220" height="137.5" as="geometry" />
        </mxCell>
        <mxCell id="HzvIYmYcQqcCCs3-Qavh-26" value="&lt;font style=&quot;font-size: 18px;&quot;&gt;&lt;b&gt;End&lt;/b&gt;&lt;/font&gt;" style="ellipse;whiteSpace=wrap;html=1;" parent="1" vertex="1">
          <mxGeometry x="620" y="960" width="120" height="55.5" as="geometry" />
        </mxCell>
        <mxCell id="PCb_0v7427A1OTCI7Cz3-1" value="&lt;font style=&quot;font-size: 18px;&quot;&gt;&lt;i&gt;&lt;u&gt;Resize&lt;/u&gt;&lt;/i&gt;&lt;br&gt;new3Ch [sizeNC]&lt;/font&gt;" style="rounded=0;whiteSpace=wrap;html=1;" parent="1" vertex="1">
          <mxGeometry x="600" y="665" width="160" height="60" as="geometry" />
        </mxCell>
        <mxCell id="PCb_0v7427A1OTCI7Cz3-3" value="&lt;font style=&quot;font-size: 15px;&quot;&gt;&lt;i&gt;No&lt;/i&gt;&lt;/font&gt;" style="text;html=1;strokeColor=none;fillColor=#FFFFFF;align=center;verticalAlign=middle;whiteSpace=wrap;rounded=0;fontSize=15;labelBackgroundColor=default;" parent="1" vertex="1">
          <mxGeometry x="414" y="490" width="36" height="30" as="geometry" />
        </mxCell>
        <mxCell id="IAlepKs2CYF-oDTVzJ_J-9" value="" style="edgeStyle=orthogonalEdgeStyle;rounded=0;orthogonalLoop=1;jettySize=auto;html=1;" edge="1" parent="1" source="vJ9HQT0dvIToX4EGv8ug-2" target="QtFkRk86ayURw90kC1N6-1">
          <mxGeometry relative="1" as="geometry" />
        </mxCell>
        <mxCell id="vJ9HQT0dvIToX4EGv8ug-2" value="&lt;span style=&quot;font-size: 18px;&quot;&gt;sizeDC&lt;/span&gt;" style="shape=parallelogram;perimeter=parallelogramPerimeter;whiteSpace=wrap;html=1;fixedSize=1;" vertex="1" parent="1">
          <mxGeometry x="120" y="275" width="340" height="40" as="geometry" />
        </mxCell>
        <mxCell id="IAlepKs2CYF-oDTVzJ_J-10" value="" style="edgeStyle=orthogonalEdgeStyle;rounded=0;orthogonalLoop=1;jettySize=auto;html=1;" edge="1" parent="1" source="QtFkRk86ayURw90kC1N6-1" target="_GY5AoajekQywj5p04hR-1">
          <mxGeometry relative="1" as="geometry" />
        </mxCell>
        <mxCell id="QtFkRk86ayURw90kC1N6-1" value="&lt;font style=&quot;font-size: 18px;&quot;&gt;diffCh[sizeDC]&lt;/font&gt;" style="shape=parallelogram;perimeter=parallelogramPerimeter;whiteSpace=wrap;html=1;fixedSize=1;" vertex="1" parent="1">
          <mxGeometry x="120" y="352" width="340" height="39" as="geometry" />
        </mxCell>
        <mxCell id="IAlepKs2CYF-oDTVzJ_J-15" value="" style="edgeStyle=orthogonalEdgeStyle;rounded=0;orthogonalLoop=1;jettySize=auto;html=1;" edge="1" parent="1" source="_GY5AoajekQywj5p04hR-1" target="IAlepKs2CYF-oDTVzJ_J-1">
          <mxGeometry relative="1" as="geometry" />
        </mxCell>
        <mxCell id="_GY5AoajekQywj5p04hR-1" value="&lt;font style=&quot;font-size: 18px;&quot;&gt;sizeNC = 0&lt;br&gt;new3Ch[sizeDC]&lt;br&gt;vLenght = 3&lt;br&gt;index = 0&lt;br&gt;&lt;/font&gt;" style="whiteSpace=wrap;html=1;" vertex="1" parent="1">
          <mxGeometry x="139.5" y="426" width="301" height="92" as="geometry" />
        </mxCell>
        <mxCell id="IAlepKs2CYF-oDTVzJ_J-18" value="" style="edgeStyle=orthogonalEdgeStyle;rounded=0;orthogonalLoop=1;jettySize=auto;html=1;" edge="1" parent="1" source="IAlepKs2CYF-oDTVzJ_J-1" target="IAlepKs2CYF-oDTVzJ_J-17">
          <mxGeometry relative="1" as="geometry" />
        </mxCell>
        <mxCell id="IAlepKs2CYF-oDTVzJ_J-29" style="edgeStyle=orthogonalEdgeStyle;rounded=0;orthogonalLoop=1;jettySize=auto;html=1;entryX=0.5;entryY=0;entryDx=0;entryDy=0;" edge="1" parent="1" source="IAlepKs2CYF-oDTVzJ_J-1" target="PCb_0v7427A1OTCI7Cz3-1">
          <mxGeometry relative="1" as="geometry" />
        </mxCell>
        <mxCell id="IAlepKs2CYF-oDTVzJ_J-1" value="" style="rhombus;whiteSpace=wrap;html=1;" vertex="1" parent="1">
          <mxGeometry x="150" y="560" width="280" height="81" as="geometry" />
        </mxCell>
        <mxCell id="IAlepKs2CYF-oDTVzJ_J-16" value="&lt;h1 style=&quot;&quot;&gt;&lt;span style=&quot;font-weight: normal;&quot;&gt;&lt;font style=&quot;font-size: 18px;&quot;&gt;index &amp;lt; diffCh.Length&lt;/font&gt;&lt;/span&gt;&lt;/h1&gt;" style="text;html=1;strokeColor=none;fillColor=none;spacing=0;spacingTop=-18;whiteSpace=wrap;overflow=hidden;rounded=0;verticalAlign=top;spacingBottom=0;spacingLeft=3;" vertex="1" parent="1">
          <mxGeometry x="195" y="582" width="190" height="41" as="geometry" />
        </mxCell>
        <mxCell id="IAlepKs2CYF-oDTVzJ_J-22" value="" style="edgeStyle=orthogonalEdgeStyle;rounded=0;orthogonalLoop=1;jettySize=auto;html=1;" edge="1" parent="1" source="IAlepKs2CYF-oDTVzJ_J-17" target="IAlepKs2CYF-oDTVzJ_J-21">
          <mxGeometry relative="1" as="geometry" />
        </mxCell>
        <mxCell id="IAlepKs2CYF-oDTVzJ_J-23" style="edgeStyle=orthogonalEdgeStyle;rounded=0;orthogonalLoop=1;jettySize=auto;html=1;exitX=0.978;exitY=0.505;exitDx=0;exitDy=0;exitPerimeter=0;" edge="1" parent="1" source="IAlepKs2CYF-oDTVzJ_J-17">
          <mxGeometry relative="1" as="geometry">
            <mxPoint x="490" y="940" as="targetPoint" />
            <mxPoint x="470" y="744.5" as="sourcePoint" />
            <Array as="points">
              <mxPoint x="490" y="736" />
            </Array>
          </mxGeometry>
        </mxCell>
        <mxCell id="2ZmBc0WmIjK_w0bSYAgw-4" value="&lt;font style=&quot;font-size: 18px;&quot;&gt;&lt;i&gt;&lt;b&gt;No&lt;/b&gt;&lt;/i&gt;&lt;/font&gt;" style="edgeLabel;html=1;align=center;verticalAlign=middle;resizable=0;points=[];spacingTop=7;spacing=5;spacingBottom=7;spacingLeft=7;spacingRight=7;" vertex="1" connectable="0" parent="IAlepKs2CYF-oDTVzJ_J-23">
          <mxGeometry x="-0.5" y="-2" relative="1" as="geometry">
            <mxPoint as="offset" />
          </mxGeometry>
        </mxCell>
        <mxCell id="O-0Q3lBoNk9-FSFI7Hh8-4" value="&lt;font style=&quot;font-size: 18px;&quot;&gt;&lt;i&gt;&lt;b&gt;No&lt;/b&gt;&lt;/i&gt;&lt;/font&gt;" style="edgeLabel;html=1;align=center;verticalAlign=middle;resizable=0;points=[];spacingTop=7;spacing=5;spacingBottom=7;spacingLeft=7;spacingRight=7;" vertex="1" connectable="0" parent="IAlepKs2CYF-oDTVzJ_J-23">
          <mxGeometry x="-0.5" y="-2" relative="1" as="geometry">
            <mxPoint x="-2" y="-166" as="offset" />
          </mxGeometry>
        </mxCell>
        <mxCell id="O-0Q3lBoNk9-FSFI7Hh8-5" value="&lt;font style=&quot;font-size: 18px;&quot;&gt;&lt;i&gt;&lt;b&gt;Yes&lt;/b&gt;&lt;/i&gt;&lt;/font&gt;" style="edgeLabel;html=1;align=center;verticalAlign=middle;resizable=0;points=[];spacingTop=7;spacing=5;spacingBottom=7;spacingLeft=7;spacingRight=7;" vertex="1" connectable="0" parent="IAlepKs2CYF-oDTVzJ_J-23">
          <mxGeometry x="-0.5" y="-2" relative="1" as="geometry">
            <mxPoint x="-198" y="-106" as="offset" />
          </mxGeometry>
        </mxCell>
        <mxCell id="O-0Q3lBoNk9-FSFI7Hh8-6" value="&lt;font style=&quot;font-size: 18px;&quot;&gt;&lt;i&gt;&lt;b&gt;Yes&lt;/b&gt;&lt;/i&gt;&lt;/font&gt;" style="edgeLabel;html=1;align=center;verticalAlign=middle;resizable=0;points=[];spacingTop=7;spacing=5;spacingBottom=7;spacingLeft=7;spacingRight=7;" vertex="1" connectable="0" parent="IAlepKs2CYF-oDTVzJ_J-23">
          <mxGeometry x="-0.5" y="-2" relative="1" as="geometry">
            <mxPoint x="-198" y="39" as="offset" />
          </mxGeometry>
        </mxCell>
        <mxCell id="IAlepKs2CYF-oDTVzJ_J-17" value="" style="rhombus;whiteSpace=wrap;html=1;" vertex="1" parent="1">
          <mxGeometry x="110" y="686" width="360" height="99" as="geometry" />
        </mxCell>
        <mxCell id="IAlepKs2CYF-oDTVzJ_J-20" value="&lt;font style=&quot;font-size: 18px;&quot;&gt;diffCh[index].Length &amp;lt;= vLength&lt;/font&gt;" style="text;whiteSpace=wrap;html=1;" vertex="1" parent="1">
          <mxGeometry x="157" y="719.25" width="260" height="30" as="geometry" />
        </mxCell>
        <mxCell id="IAlepKs2CYF-oDTVzJ_J-24" value="" style="edgeStyle=orthogonalEdgeStyle;rounded=0;orthogonalLoop=1;jettySize=auto;html=1;" edge="1" parent="1" source="IAlepKs2CYF-oDTVzJ_J-21" target="OUtE3hi6zpG22OVB9uPO-8">
          <mxGeometry relative="1" as="geometry">
            <Array as="points">
              <mxPoint x="290" y="935" />
              <mxPoint x="290" y="935" />
            </Array>
          </mxGeometry>
        </mxCell>
        <mxCell id="IAlepKs2CYF-oDTVzJ_J-21" value="&lt;font style=&quot;font-size: 18px;&quot;&gt;new3Ch[sizeNC] = diffCH[index]&lt;br&gt;sizeNC = sizeNC + 1&lt;br&gt;&lt;/font&gt;" style="whiteSpace=wrap;html=1;" vertex="1" parent="1">
          <mxGeometry x="139.5" y="830" width="301" height="60" as="geometry" />
        </mxCell>
      </root>
    </mxGraphModel>
  </diagram>
</mxfile>
